<?xml version="1.0" encoding="UTF-8" standalone="no"?>
<!DOCTYPE svg PUBLIC "-//W3C//DTD SVG 20010904//EN"
"http://www.w3.org/TR/2001/REC-SVG-20010904/DTD/svg10.dtd">
<!-- Created with Sodipodi ("http://www.sodipodi.com/") -->
<svg
   xmlns="http://www.w3.org/2000/svg"
   xmlns:sodipodi="http://sodipodi.sourceforge.net/DTD/sodipodi-0.dtd"
   xmlns:xlink="http://www.w3.org/1999/xlink"
   xml:space="preserve"
   id="svg602"
   sodipodi:version="0.34"
   width="210mm"
   height="297mm"
   sodipodi:docname="D:\Dokumente\revelation, Portals of Dominium.svg"><defs
   id="defs604"><linearGradient
   id="linearGradient628"><stop
   style="stop-color:#000;stop-opacity:1;"
   offset="0"
   id="stop629" /><stop
   style="stop-color:#fff;stop-opacity:1;"
   offset="1"
   id="stop630" /></linearGradient><linearGradient
   xlink:href="#linearGradient628"
   id="linearGradient631" /></defs><sodipodi:namedview
   id="base" /><path
   style="font-size:12;fill:#323333;fill-opacity:0.3391;fill-rule:evenodd;stroke:#000000;stroke-width:1;"
   d="M 354.0099 53.45047 C 295.5539 53.45047 235.0217 40.00259 176.7562 34.03282 C 134.1069 29.66309 91.96747 25.37529 49.13684 23.25073 C 46.64311 23.12706 48.94324 94.23027 49.14195 100.9991 C 54.53678 284.7668 44.57966 468.682 47.37834 652.5603 C 48.83087 747.994 38.50521 841.7314 34.60113 936.8665 C 34.15709 947.6869 37.38029 1014.134 43.61625 1016.53 C 45.44601 1017.233 150.2755 1007.305 157.0318 1006.808 C 304.3267 995.9561 446.4119 996.114 592.8727 1011.256 C 631.3242 1015.231 701.2928 1037.166 708.2913 1022.198 C 738.4138 1036.323 725.6779 971.7286 704.9726 956.5935 C 704.0733 956.1835 703.3005 954.1664 702.6402 950.741 C 701.98 947.3156 701.4326 942.4819 700.9844 936.4388 C 700.5362 930.3957 700.1871 923.1431 699.9238 914.8799 C 699.6603 906.6167 699.4825 897.3428 699.3769 887.2572 C 699.2712 877.1716 699.2376 866.274 699.2625 854.7637 C 699.2874 843.2532 699.3708 831.1298 699.4992 818.5922 C 699.6275 806.0547 699.8008 793.103 700.0056 779.936 C 700.2103 766.7689 700.4465 753.3865 700.7004 739.9877 C 700.9543 726.5889 701.226 713.1735 701.5021 699.9405 C 701.7781 686.7075 702.0584 673.6567 702.3294 660.9872 C 702.6004 648.3177 702.8621 636.0294 703.1009 624.3209 C 703.3398 612.6125 703.5557 601.4841 703.7353 591.1346 C 703.9148 580.785 704.058 571.2142 704.1511 562.621 C 704.2443 554.0278 626.3753 570.3051 669.9638 530.3683 C 676.1216 524.3545 647.9216 521.0328 602.5546 519.0753 C 591.213 518.5859 564.2195 528.6442 529.1323 543.9984 C 494.045 559.3524 434.9253 550.7675 386.5656 549.9271 C 312.6619 548.6666 308.2015 609.1958 270.9717 624.7249 C 233.7418 640.254 214.5115 683.5062 198.8845 683.3668 C 183.2576 683.2275 191.7303 673.3997 212.5223 658.708 C 233.3142 644.0164 241.727 584.6691 275.3771 565.0744 C 309.0271 545.4797 337.7275 535.4506 360.6748 520.602 C 383.6221 505.7534 402.9436 524.1627 414.1985 525.4237 C 457.7675 529.0867 403.6192 499.6521 376.1999 496.8297 C 348.7807 494.0073 330.2529 495.8429 306.4778 474.23 C 282.4319 454.8757 301.7049 461.0691 282.1111 433.0593 C 268.9833 416.3802 261.2482 361.8217 271.7804 350.1238 C 296.0074 326.3167 281.431 415.7002 294.7777 411.3997 C 308.1245 407.0993 310.2139 444.0075 329.8146 440.0126 C 349.4153 436.0176 333.0142 480.3081 356.0324 477.0509 C 367.5415 475.4223 388.9054 467.3953 392.5042 456.7703 C 396.103 446.1452 431.3335 505.6451 443.1329 504.6016 C 466.7321 502.5143 473.4468 492.8873 494.7903 492.4023 C 516.1337 491.9173 510.942 474.5038 527.1933 476.053 C 543.4448 477.6024 527.6262 484.3935 535.949 488.4096 C 544.2717 492.4256 534.1998 414.0831 568.805 442.9521 C 604.3737 447.3009 616.3 430.4297 603.6661 401.953 C 562.876 314.4431 706.9333 451.5029 707.5845 446.6889 C 708.2356 441.8748 708.75 436.5743 709.1442 430.8762 C 709.5385 425.1781 709.8126 419.0825 709.9835 412.6784 C 710.1544 406.2743 710.2219 399.5616 710.2028 392.6295 C 710.1838 385.6974 710.0781 378.5457 709.9027 371.2636 C 709.7273 363.9816 709.4821 356.569 709.1837 349.1149 C 708.8853 341.6609 708.5339 334.1653 708.1462 326.7174 C 707.7585 319.2694 707.3344 311.869 706.8908 304.6051 C 706.4471 297.3412 705.9839 290.2138 705.5179 283.3121 C 705.0519 276.4103 704.5831 269.734 704.1281 263.3724 C 703.6732 257.0108 703.2322 250.9637 702.8219 245.3203 C 702.4116 239.6768 702.0319 234.437 701.6998 229.6896 C 701.3675 224.9424 701.0828 220.6877 700.8621 217.0146 C 700.6415 213.3415 740.615 197.5107 712.7589 194.108 C 680.2033 189.9252 736.0151 144.6565 693.5821 157.3872 C 711.5811 137.5643 694.8126 99.26926 708.2109 39.06685 C 708.656 37.06696 658.5969 40.46623 657.5424 40.49919 C 570.4832 43.22037 472.4278 32.3378 387.5223 40.13313 C 374.2323 41.3533 360.7698 45.18097 354.0099 53.45047 L 354.0099 53.45047 L 354.0099 53.45047 L 354.0099 53.45047 L 354.0099 53.45047 L 354.0099 53.45047 L 354.0099 53.45047 L 354.0099 53.45047 L 354.0099 53.45047 L 354.0099 53.45047 L 354.0099 53.45047 L 354.0099 53.45047 L 354.0099 53.45047 L 354.0099 53.45047 L 354.0099 53.45047 z "
   id="path646"
   sodipodi:nodetypes="cccccccccccssssssssssssssssssssssssssssssssssscssssssssssssssscccccccccccccccccc" /></svg>
